<svg width="536" height="436" viewBox="0 0 536 436" fill="none" xmlns="http://www.w3.org/2000/svg">
<circle cx="134" cy="124" r="46" fill="black"/>
<path d="M163.538 202.334C171.452 190.433 188.933 190.433 196.847 202.334L274.878 319.684C283.717 332.977 274.187 350.758 258.224 350.758H102.161C86.1983 350.758 76.6682 332.977 85.5071 319.684L163.538 202.334Z" fill="black"/>
<path d="M328.848 149.403C336.749 137.391 354.366 137.391 362.267 149.403L474.513 320.051C483.26 333.35 473.721 351.042 457.803 351.042H233.312C217.394 351.042 207.855 333.35 216.602 320.051L328.848 149.403Z" fill="black"/>
<path d="M18.0001 98.0001C18.0001 60.2877 18.0001 41.4315 29.7158 29.7158C41.4315 18.0001 60.2877 18.0001 98.0001 18.0001H438C475.712 18.0001 494.569 18.0001 506.284 29.7158C518 41.4315 518 60.2877 518 98.0001V338C518 375.712 518 394.569 506.284 406.284C494.569 418 475.712 418 438 418H98.0001C60.2877 418 41.4315 418 29.7158 406.284C18.0001 394.569 18.0001 375.712 18.0001 338V98.0001Z" stroke="black" stroke-width="36"/>
</svg>
